<?xml version="1.0" encoding="UTF-8" standalone="no"?>
<!-- Created with Inkscape (http://www.inkscape.org/) -->
<svg xmlns:rdf="http://www.w3.org/1999/02/22-rdf-syntax-ns#" xmlns="http://www.w3.org/2000/svg" version="1.1" xmlns:cc="http://creativecommons.org/ns#" xmlns:dc="http://purl.org/dc/elements/1.1/" viewBox="0 0 319.88 68">
<metadata>
<rdf:RDF>
<cc:Work rdf:about="">
<dc:format>image/svg+xml</dc:format>
<dc:type rdf:resource="http://purl.org/dc/dcmitype/StillImage"/>
<dc:title/>
</cc:Work>
</rdf:RDF>
</metadata>
<g transform="translate(-127.90625,-73.875)">
<path style="baseline-shift:baseline;block-progression:tb;color:#000000;direction:ltr;text-indent:0;text-align:start;enable-background:accumulate;text-transform:none;" d="m240.12,73.875c-19.026,0-36.392,4.8127-49.719,12.875-12.785,7.7346-21.822,18.538-24.688,30.938-16.287,2.2697-29.795,10.017-35.938,20.875l-1.875,3.3125h3.8125,313.78,2.2812l-0.0625-2.2812c-0.22326-9.3722-5.9605-17.689-14.656-23.531-8.6957-5.8418-20.446-9.3438-33.375-9.3438-4.8193,0-9.3997,0.55257-13.781,1.4688-11.103-14.969-33.24-24.875-58.75-24.875-12.086,0-23.415,2.2994-33.188,6.2188-13.75-9.701-32.75-15.659-53.84-15.659z" fill-rule="nonzero" fill="#333333"/>
</g>
</svg>
